<svg width="24" height="20" viewBox="0 0 24 20" fill="none" xmlns="http://www.w3.org/2000/svg">
<path d="M5.14284 4.28572H23L20.7343 12.2143C20.5636 12.8111 20.2031 13.3361 19.7074 13.7099C19.2118 14.0836 18.6079 14.2858 17.9871 14.2857H8.4157C7.71207 14.2861 7.03305 14.0269 6.50873 13.5576C5.9844 13.0884 5.65167 12.4422 5.57427 11.7429L4.42855 1.42857H1.57141" stroke="black" stroke-width="2" stroke-linecap="round" stroke-linejoin="round"/>
<path d="M7.99998 19.2857C8.78896 19.2857 9.42855 18.6461 9.42855 17.8571C9.42855 17.0682 8.78896 16.4286 7.99998 16.4286C7.211 16.4286 6.57141 17.0682 6.57141 17.8571C6.57141 18.6461 7.211 19.2857 7.99998 19.2857Z" fill="black"/>
<path d="M19.4286 19.2857C20.2175 19.2857 20.8571 18.6461 20.8571 17.8571C20.8571 17.0682 20.2175 16.4286 19.4286 16.4286C18.6396 16.4286 18 17.0682 18 17.8571C18 18.6461 18.6396 19.2857 19.4286 19.2857Z" fill="black"/>
</svg>
