<svg width="21" height="21" viewBox="0 0 21 21" fill="none" xmlns="http://www.w3.org/2000/svg">
<path d="M20.75 19.6895L15.086 14.0255C16.4471 12.3914 17.1259 10.2956 16.981 8.17389C16.8362 6.05219 15.879 4.06801 14.3085 2.6341C12.7379 1.2002 10.6751 0.42697 8.54899 0.475279C6.42291 0.523588 4.39729 1.38971 2.89353 2.89347C1.38977 4.39723 0.523649 6.42284 0.47534 8.54893C0.427031 10.675 1.20026 12.7379 2.63416 14.3084C4.06807 15.8789 6.05225 16.8361 8.17395 16.981C10.2957 17.1258 12.3915 16.4471 14.0255 15.086L19.6895 20.75L20.75 19.6895ZM2.00003 8.74996C2.00003 7.41494 2.39591 6.1099 3.13761 4.99987C3.87931 3.88983 4.93351 3.02467 6.16691 2.51378C7.40031 2.00289 8.75751 1.86921 10.0669 2.12966C11.3763 2.39011 12.579 3.03299 13.523 3.97699C14.467 4.921 15.1099 6.12373 15.3703 7.4331C15.6308 8.74248 15.4971 10.0997 14.9862 11.3331C14.4753 12.5665 13.6102 13.6207 12.5001 14.3624C11.3901 15.1041 10.085 15.5 8.75003 15.5C6.96042 15.498 5.24469 14.7862 3.97925 13.5207C2.71381 12.2553 2.00201 10.5396 2.00003 8.74996Z" fill="black"/>
</svg>
