<svg width="96" height="96" viewBox="0 0 96 96" fill="none" xmlns="http://www.w3.org/2000/svg">
<g clip-path="url(#clip0_0_191)">
<path d="M48.676 41.224L53.12 33.476L68.216 32.508L68.744 31.564L54.792 30.596L58.072 24.94H83.952C91.912 24.94 97.792 27.8 95.5 36.14C94.82 38.692 91.584 45.072 82.076 47.736C84.104 47.976 89.116 50.2 88.236 55.964C86.7 66.196 73.476 71.06 66.104 71.06L35.54 71.084L34.02 65.164L50.04 64.044L50.588 63.096L33.204 62.04L31.336 55.02L56.048 53.568L56.596 52.644L12.212 49.872L14.348 46.172L62.14 43.072L62.692 42.148L48.676 41.224ZM68.676 42.764L73.076 42.74C76.028 42.72 79.084 41.38 80.208 38.668C81.244 36.14 79.856 33.984 78.008 34.004H73.74L68.676 42.764ZM63.596 51.544L58.292 60.764H63.352C65.708 60.764 69.912 59.596 71.208 56.252C72.416 53.128 70.196 51.544 68.656 51.544H63.592H63.596ZM25.04 65.78L21.96 71.04L0 71.08L2.136 67.388L25.04 65.78ZM26.58 24.916L44.248 24.94L45.592 29.932L24.488 28.612L26.58 24.916ZM46.58 33.896L48.516 41.224L18.348 39.244L20.46 35.564L46.58 33.896ZM31.22 55.02L27.392 61.664L6.112 60.456L8.248 56.76L31.22 55.02Z" fill="black"/>
</g>
<defs>
<clipPath id="clip0_0_191">
<rect width="96" height="96" fill="white"/>
</clipPath>
</defs>
</svg>
