<svg width="96" height="96" viewBox="0 0 96 96" fill="none" xmlns="http://www.w3.org/2000/svg">
<path d="M96 31.2L25.768 61.104C19.944 63.568 15.052 64.804 11.096 64.804C6.61599 64.804 3.36399 63.236 1.34799 60.096C0.0799878 58.08 -0.292012 55.524 0.227988 52.424C0.747988 49.3239 2.13199 46.024 4.37199 42.512C6.23999 39.672 9.29999 35.94 13.56 31.312C12.115 33.5866 11.0555 36.0842 10.424 38.7039C9.30399 43.4839 10.312 46.9919 13.448 49.2319C14.94 50.2759 16.992 50.7999 19.608 50.7999C21.696 50.7999 24.048 50.464 26.664 49.792L96 31.2Z" fill="black"/>
</svg>
