<svg width="96" height="96" viewBox="0 0 96 96" fill="none" xmlns="http://www.w3.org/2000/svg">
<g clip-path="url(#clip0_0_195)">
<path d="M95.3801 12.032C93.7121 9.90003 90.7961 11.608 89.5121 12.352C80.3761 17.736 79.0281 27.216 75.8441 32.66C73.3401 37.02 69.2361 40.22 65.5241 40.468C62.7801 40.664 59.8041 40.132 56.8521 38.848C49.6241 35.724 45.7321 31.68 44.7841 30.968C42.8361 29.488 27.8641 14.908 15.6641 14.312C15.6641 14.312 14.1761 11.312 13.8041 11.26C12.9161 11.16 12.0041 13.064 11.3401 13.264C10.7401 13.476 9.68808 11.216 9.08008 11.316C8.46807 11.396 7.87208 13.66 6.68008 14.824C5.80008 15.676 4.73608 15.624 4.13208 16.676C3.92408 17.06 3.99608 17.736 3.76008 18.356C3.25208 19.636 1.55608 19.772 1.54008 21.144C1.54008 22.668 2.96808 22.96 4.21608 24.024C5.20808 24.872 5.27608 25.472 6.43208 25.868C7.46408 26.22 8.96008 25.12 10.2881 25.516C11.3961 25.84 12.4601 26.076 12.6961 27.208C12.9121 28.232 12.6961 29.84 11.3361 29.66C10.8881 29.6 8.94408 28.964 6.54408 29.22C3.64408 29.528 0.332075 30.456 0.00807514 33.66C-0.155925 35.448 2.06408 37.54 4.22808 37.124C5.71208 36.84 5.01208 35.1 5.82408 34.26C6.89208 33.18 12.9121 38.036 18.5121 38.036C20.8841 38.036 22.6361 37.436 24.3801 35.616C24.5401 35.5 24.7521 35.208 25.0001 35.176C25.2782 35.2482 25.542 35.3672 25.7801 35.528C30.3041 39.116 33.7161 46.328 50.3001 46.412C52.6281 46.44 55.3001 47.528 57.4841 49.52C59.4041 51.252 60.5401 54.02 61.6321 56.82C63.3041 61.032 66.2761 65.096 70.8001 69.632C71.0401 69.904 74.7601 72.752 75.0401 72.964C75.0881 73.004 75.3761 73.632 75.2521 73.984C75.1721 76.744 74.7601 84.664 80.7121 84.996C82.1761 85.076 81.8121 84.072 81.8121 83.356C81.7921 81.992 81.5521 80.616 82.2641 79.196C83.2761 77.284 80.1601 76.36 80.2281 72.172C80.3041 69.036 77.6481 69.568 76.2921 67.172C75.5321 65.8 74.8201 65.044 74.8921 63.388C75.1841 53.868 72.8241 47.596 71.6721 46.08C70.7641 44.904 69.9801 44.468 70.8441 43.92C75.8041 40.66 76.9441 37.624 76.9441 37.624C79.5841 31.46 81.9681 25.844 85.2441 23.344C85.9081 22.864 87.6001 21.584 88.6521 21.104C91.7041 19.656 93.3441 18.792 94.2041 17.952C95.6281 16.604 96.7441 13.74 95.3801 12.032Z" fill="black"/>
</g>
<defs>
<clipPath id="clip0_0_195">
<rect width="96" height="96" fill="white"/>
</clipPath>
</defs>
</svg>
